<?xml version="1.0" encoding="UTF-8" standalone="no"?>
<!-- Created with Inkscape (http://www.inkscape.org/) -->

<svg
   width="32"
   height="32"
   viewBox="0 0 8.4666665 8.4666666"
   version="1.1"
   id="svg8451"
   xml:space="preserve"
   inkscape:export-filename="logo32.png"
   inkscape:export-xdpi="96"
   inkscape:export-ydpi="96"
   inkscape:version="1.2.2 (732a01da63, 2022-12-09)"
   sodipodi:docname="faviconDark.svg"
   xmlns:inkscape="http://www.inkscape.org/namespaces/inkscape"
   xmlns:sodipodi="http://sodipodi.sourceforge.net/DTD/sodipodi-0.dtd"
   xmlns="http://www.w3.org/2000/svg"
   xmlns:svg="http://www.w3.org/2000/svg"><sodipodi:namedview
     id="namedview8453"
     pagecolor="#ffffff"
     bordercolor="#000000"
     borderopacity="0.25"
     inkscape:showpageshadow="2"
     inkscape:pageopacity="0.0"
     inkscape:pagecheckerboard="0"
     inkscape:deskcolor="#d1d1d1"
     inkscape:document-units="mm"
     showgrid="false"
     inkscape:zoom="13.823744"
     inkscape:cx="17.831638"
     inkscape:cy="17.795468"
     inkscape:window-width="1920"
     inkscape:window-height="1017"
     inkscape:window-x="1912"
     inkscape:window-y="0"
     inkscape:window-maximized="1"
     inkscape:current-layer="layer1" /><defs
     id="defs8448" /><g
     inkscape:label="Layer 1"
     inkscape:groupmode="layer"
     id="layer1"><path
       style="fill:#ffffff;stroke-width:0.0246958"
       d="M 3.9697729,7.683729 C 3.8975746,7.6730035 3.8323714,7.6580936 3.8248754,7.6506029 3.8173757,7.6430763 3.805731,7.5880423 3.7989893,7.5282272 L 3.7867316,7.4194809 3.8933292,7.4024385 c 0.058629,-0.00937 0.2549127,-0.00935 0.436187,4.93e-5 l 0.3295901,0.017097 -0.00738,0.1119971 c -0.00631,0.095742 -0.016338,0.1143666 -0.069117,0.1283286 -0.1113112,0.029443 -0.4788161,0.043735 -0.6128384,0.023825 z M 3.391035,7.2440129 3.2243377,7.071329 V 6.4934197 5.9155096 l 0.088038,-0.085105 C 3.3607953,5.7835966 3.432094,5.6975772 3.4708159,5.6392512 l 0.070403,-0.1060474 0.015711,0.1554391 c 0.00864,0.08549 0.012356,0.509278 0.00825,0.9417479 l -0.00745,0.786308 z m 1.5039257,0.0939 c -0.02,-0.099995 -0.020631,-1.6963005 -7e-4,-1.7706358 0.012877,-0.048027 0.033484,-0.030796 0.1725339,0.1442648 l 0.157911,0.1988058 -0.00115,0.5842639 -0.00115,0.584263 L 5.0666861,7.248391 4.9109563,7.4179057 4.894958,7.337909 Z M 3.817039,7.054179 V 6.9183513 h 0.4198299 0.41983 V 7.054179 7.1900058 H 4.2368689 3.817039 Z M 2.7612899,6.6407525 C 2.6220669,6.5009392 2.5081571,6.3785124 2.5081571,6.368692 c 0,-0.00982 0.075013,-0.051791 0.1666972,-0.09326 0.091684,-0.041477 0.2069461,-0.1076414 0.2561394,-0.1470397 l 0.089442,-0.071638 0.015516,0.1131968 c 0.019634,0.1432405 0.016994,0.4812674 -0.00483,0.6193935 l -0.016692,0.1056093 z m 2.652442,0.049165 C 5.3938881,6.435001 5.392989,6.1193829 5.4119719,6.0699294 c 0.011508,-0.029989 0.045301,-0.016334 0.1686991,0.068143 0.08487,0.058108 0.200163,0.1314157 0.2562083,0.1629146 l 0.1018984,0.057274 -0.070915,0.08954 C 5.7572098,6.5875052 5.4691245,6.8936648 5.4483158,6.8936648 c -0.010295,0 -0.02586,-0.091684 -0.034582,-0.2037412 z M 3.817039,6.5596639 V 6.398544 l 0.413656,0.00681 0.413656,0.00681 0.00736,0.1543487 0.00736,0.1543495 H 4.2380474 3.8170389 Z M 1.4709301,6.4027616 c 0,-0.033099 0.039679,-0.060024 0.3333943,-0.2262396 C 2.5361403,5.7623966 2.9295989,5.3728025 3.1674892,4.8267452 l 0.066646,-0.1529795 0.1000588,0.091932 c 0.055032,0.050563 0.1265141,0.110351 0.1588481,0.1328664 l 0.058789,0.04093 -0.1160424,0.2385436 C 3.3433603,5.3680348 3.2795491,5.4584474 3.1222146,5.6223306 3.0135722,5.7354952 2.8524148,5.8751686 2.764087,5.9327159 2.6122594,6.0316355 2.2338093,6.1815837 1.7055408,6.352128 1.4482939,6.4351807 1.4709301,6.4302884 1.4709301,6.4027625 Z M 6.9482783,6.3616697 C 6.9409309,6.3543224 6.7626011,6.3051036 6.5520024,6.2523089 6.0154173,6.1177956 5.7360114,5.9714673 5.4015753,5.6498207 5.2475266,5.5016627 5.085584,5.2821228 4.9900307,5.0919036 L 4.9223264,4.9571251 5.0796894,4.8148962 c 0.08655,-0.078223 0.1629195,-0.1424602 0.1697109,-0.1427442 0.0068,-2.804e-4 0.042736,0.074361 0.079878,0.165876 0.1013683,0.2497682 0.250258,0.4624661 0.4989049,0.7127138 0.2593773,0.2610482 0.4392551,0.3831739 0.9091446,0.617251 0.1867622,0.093037 0.339568,0.1776838 0.339568,0.1881037 0,0.021433 -0.1080778,0.02612 -0.1286175,0.00556 z M 3.817039,6.0539958 V 5.9058199 h 0.4198299 0.41983 v 0.1481759 0.148175 H 4.2368689 3.817039 Z M 6.5706299,5.8031031 C 6.5027165,5.7607121 6.4389858,5.7136886 6.429007,5.6986156 6.4190271,5.6835444 6.4106931,5.1478704 6.4104853,4.5082338 6.4102985,3.8685964 6.4033798,3.1906951 6.3951695,3.001785 L 6.3802327,2.658312 6.1500705,2.4328046 5.9199083,2.2072972 6.0106578,2.1922887 c 0.049913,-0.00824 0.1577286,-0.015125 0.2395886,-0.015277 l 0.1488379,-2.705e-4 0.1660348,0.1673176 0.166035,0.1673168 v 1.6848729 c 0,0.9266812 -0.00833,1.6846631 -0.018521,1.6844051 -0.010189,-2.608e-4 -0.074087,-0.03516 -0.1420008,-0.077551 z M 1.8084405,5.8152711 C 1.7993852,5.8062212 1.7919769,5.0605552 1.7919769,4.1582459 V 2.5176843 l 0.1645749,-0.1704699 0.1645748,-0.17047 0.2367333,7.752e-4 0.2367331,7.74e-4 -0.2416025,0.2276607 -0.2416023,0.2276605 8.214e-4,0.8665176 c 4.479e-4,0.4765848 -0.00648,1.1666461 -0.015405,1.5334703 l -0.016221,0.6669529 -0.1036733,0.065589 c -0.1070393,0.067722 -0.1402014,0.07739 -0.1684652,0.049121 z M 3.8081942,5.6156436 C 3.7735586,5.4060998 3.7487433,5.4210679 4.1566073,5.4054734 c 0.2003454,-0.00761 0.3948255,-0.00807 0.4321779,-8.673e-4 0.064912,0.012481 0.067914,0.019479 0.067914,0.1583529 V 5.7082551 H 4.2401001 3.8235015 L 3.8081942,5.6156445 Z M 1.4269988,5.4050639 1.273363,5.2500505 V 4.1334519 3.0168525 L 1.4330649,2.84993 1.5927668,2.6830074 1.5935882,4.1215429 c 4.481e-4,0.791194 -0.00228,1.4385354 -0.00606,1.4385354 -0.00379,0 -0.076024,-0.069756 -0.1605233,-0.1550144 z M 6.929813,4.1269441 6.9308882,2.7077037 7.077971,2.8654249 7.2250519,3.0231462 V 4.138036 5.2529258 L 7.0768769,5.3995543 6.928702,5.5461836 6.9297772,4.1269441 Z M 2.30644,5.3499341 C 2.29689,4.9525689 2.318418,3.4201916 2.334155,3.3772559 2.34883,3.3372219 2.368448,3.3505449 2.4729195,3.4714919 l 0.121673,0.1408633 0.012684,0.7948166 0.012684,0.7948157 L 2.4652749,5.3622822 2.3105893,5.5225768 Z M 6.0298708,5.3609821 5.8914933,5.2115178 V 4.4033619 3.5952062 l 0.1446965,-0.1431868 0.1446966,-0.1431868 0.015826,0.079137 c 0.02466,0.123294 0.018756,2.0932958 -0.00632,2.1087936 -0.012178,0.00753 -0.084414,-0.053574 -0.1605217,-0.1357778 z M 3.817039,5.0408669 V 4.8920951 l 0.413656,0.00681 0.413656,0.00681 0.00741,0.1420005 0.00741,0.1420013 H 4.2381013 3.817039 Z M 0.90881726,4.9115909 0.75418658,4.7555649 0.76063796,3.7469796 0.76708936,2.7383935 1.3259942,2.1978154 1.8848993,1.6572373 2.4809411,1.6638639 3.0769829,1.6704905 2.9479995,1.82484 2.8190159,1.9791887 H 2.4263927 2.0337617 L 1.5550333,2.4392551 1.076305,2.8993136 1.0698804,3.9834759 1.0634559,5.0676384 Z M 7.4226383,4.0044654 V 2.9386536 L 6.9719379,2.4601979 6.5212379,1.9817413 6.0928195,1.9804582 5.664401,1.9791742 5.5437686,1.849521 C 5.4774204,1.7782152 5.4229417,1.7128285 5.4227039,1.7042258 5.4217093,1.6683041 5.5631481,1.6587883 6.1026228,1.6584657 l 0.5692191,-3.36e-4 0.5359212,0.5587057 0.5359214,0.5587047 V 3.7632004 4.7508607 L 7.6041356,4.9023367 C 7.527382,4.9856492 7.455148,5.0575177 7.4436124,5.0620453 7.4320806,5.0666151 7.4226365,4.590662 7.4226365,4.0044662 Z M 2.8202514,4.8670493 C 2.7991704,4.7616457 2.8033804,3.929433 2.8252814,3.8740515 2.8401124,3.8365355 2.8579634,3.8459785 2.950531,3.9402945 L 3.058486,4.0502918 3.04073,4.2927431 C 3.0271609,4.4779562 3.0050936,4.5789223 2.9472549,4.7204146 2.8533804,4.95006 2.8399572,4.9655576 2.8202548,4.8670458 Z M 5.5738975,4.7735683 C 5.4966923,4.60607 5.4486982,4.3592685 5.4483024,4.1277165 5.448125,4.0294923 5.4611111,4.002961 5.5600295,3.8992799 c 0.061554,-0.064514 0.1156259,-0.117306 0.1201586,-0.117306 0.00454,0 0.016067,0.041675 0.025633,0.09261 0.021224,0.1130177 -0.011041,1.0680976 -0.036083,1.0680976 -0.00984,0 -0.052969,-0.076099 -0.095841,-0.1691132 z M 3.817039,4.5222539 V 4.3734813 l 0.413656,0.00681 0.413656,0.00681 0.00741,0.1420014 0.00741,0.1420014 H 4.2381013 3.817039 Z m 1.0523558,0.085373 C 4.8610707,4.5859435 4.8542662,4.2146525 4.8542662,3.7825357 V 2.9968693 l 0.3741151,-0.3619534 0.3741151,-0.3619526 0.076585,0.070903 c 0.042121,0.038995 0.1682683,0.1522878 0.2803253,0.2517583 0.1943958,0.1725587 0.2037417,0.1856325 0.2037417,0.2850063 0,0.1026926 -0.00679,0.1108135 -0.4842829,0.5798223 l -0.4842826,0.47567 0.017234,0.2298657 0.017234,0.2298656 -0.077735,0.040196 C 5.1085616,4.4581552 5.0310434,4.5146766 4.9790534,4.5616486 4.901277,4.6319152 4.8818445,4.6400601 4.869397,4.6076236 Z M 5.516686,3.1734752 C 5.61564,3.060946 5.534616,2.8929213 5.3813999,2.8929213 c -0.1140335,0 -0.1813914,0.072847 -0.1813914,0.1961671 0,0.1785188 0.1894973,0.2290153 0.3166775,0.084388 z M 3.5203396,4.5841694 C 3.503239,4.5635608 3.4361641,4.512308 3.3712849,4.4702683 L 3.2533225,4.3938283 3.266943,4.1655261 3.2805635,3.9372248 2.8583989,3.5162322 C 2.6262092,3.2846909 2.4135631,3.0580572 2.3858527,3.0126054 c -0.0294,-0.048224 -0.049933,-0.1237789 -0.049302,-0.181423 0.00102,-0.092998 0.015562,-0.112161 0.2483658,-0.3272199 0.1360071,-0.1256408 0.2564097,-0.2284374 0.2675614,-0.2284374 0.011152,0 0.1827306,0.1672236 0.3812868,0.3716082 l 0.3610114,0.371608 v 0.8014464 c 0,0.4432839 -0.00968,0.8014463 -0.021672,0.8014463 -0.011919,0 -0.035664,-0.016864 -0.052764,-0.037463 z M 3.1839635,3.2121764 C 3.3122102,3.1112969 3.2300063,2.8929222 3.0637862,2.8929222 c -0.1450107,0 -0.2199844,0.1327374 -0.1506763,0.2667641 0.060082,0.116186 0.1642206,0.136368 0.2708536,0.05249 z M 0.39048516,4.4105625 0.23613584,4.2395334 0.23604552,3.7205773 C 0.23599587,3.4351517 0.22894898,3.0460369 0.22038297,2.8558787 L 0.20481093,2.5101362 0.91040897,1.8248256 1.6160069,1.139515 H 2.6108516 3.6056963 L 3.4466,1.3000382 3.2875037,1.4605613 H 2.5322449 1.7769859 l -0.6072131,0.5865273 -0.60721303,0.5865272 -0.008862,0.973987 -0.008862,0.9739878 z M 7.9412521,3.5985045 V 2.649462 L 7.348769,2.0550121 6.7562867,1.4605613 H 5.9555237 5.1547609 L 5.015031,1.3062118 4.8753014,1.1518622 5.8958373,1.1357431 6.9163726,1.119624 7.5831614,1.8004006 8.2499502,2.4811765 8.2654608,2.903143 c 0.00851,0.2320807 0.016863,0.6278797 0.018521,0.8795529 l 0.00304,0.4575873 -0.1550143,0.1536354 c -0.085257,0.084495 -0.163049,0.1536363 -0.1728713,0.1536363 -0.00982,0 -0.017858,-0.4270695 -0.017858,-0.9490425 z M 3.817039,4.0289332 V 3.8807581 l 0.3272203,-2.706e-4 c 0.1799713,-1.496e-4 0.3688949,-0.00717 0.4198302,-0.015582 l 0.092609,-0.015304 v 0.1637542 0.163755 H 4.2368689 3.817039 V 4.028935 Z m 0,-0.4939175 V 3.3868398 h 0.4198299 0.41983 V 3.5350157 3.6831906 H 4.2368689 3.817039 Z m 0,-0.4633201 V 2.9541173 L 3.3971857,2.5348091 2.9773325,2.115501 3.4648676,1.627508 C 3.8991209,1.1928465 3.9612002,1.139515 4.0328964,1.139515 h 0.080494 V 1.7821371 2.42476 l 0.063657,0.029005 c 0.045263,0.020626 0.075592,0.021478 0.1049573,0.00296 0.036599,-0.023072 0.04205,-0.099523 0.047884,-0.6716264 l 0.00658,-0.6455907 h 0.080089 c 0.071101,0 0.1334111,0.053377 0.5552475,0.4756279 0.261337,0.2615949 0.4751582,0.4878515 0.4751582,0.5027926 0,0.014937 -0.1778105,0.2011705 -0.3951342,0.4138433 L 4.6566989,2.9184563 v 0.1354083 0.1354085 h -0.41983 -0.41983 z"
       id="path8976" /></g></svg>
